HIERARCHY
ROOT mixamorig:Hips
{
	OFFSET -0.000008 104.274872 1.554316
	CHANNELS 6 Xposition Yposition Zposition Xrotation Yrotation Zrotation
	JOINT mixamorig:Spine
	{
		OFFSET -0.000005 10.181595 0.131519
		CHANNELS 6 Xposition Yposition Zposition Xrotation Yrotation Zrotation
		JOINT mixamorig:Spine1
		{
			OFFSET -0.000000 9.893959 -1.470707
			CHANNELS 6 Xposition Yposition Zposition Xrotation Yrotation Zrotation
			JOINT mixamorig:Spine2
			{
				OFFSET -0.000000 9.220757 -1.370641
				CHANNELS 6 Xposition Yposition Zposition Xrotation Yrotation Zrotation
				JOINT mixamorig:Neck
				{
					OFFSET 0.000001 16.740417 -2.049036
					CHANNELS 6 Xposition Yposition Zposition Xrotation Yrotation Zrotation
					JOINT mixamorig:Head
					{
						OFFSET 0.000000 9.617874 1.685006
						CHANNELS 6 Xposition Yposition Zposition Xrotation Yrotation Zrotation
						JOINT mixamorig:HeadTop_End
						{
							OFFSET 0.000002 22.037354 7.501101
							CHANNELS 6 Xposition Yposition Zposition Xrotation Yrotation Zrotation
							End Site
							{
								OFFSET 0.000168 2310.654297 -282.823242
							}
						}
					}
				}
				JOINT mixamorig:RightShoulder
				{
					OFFSET -4.569970 11.014908 -2.160885
					CHANNELS 6 Xposition Yposition Zposition Xrotation Yrotation Zrotation
					JOINT mixamorig:RightArm
					{
						OFFSET -10.592851 -0.524811 -2.232101
						CHANNELS 6 Xposition Yposition Zposition Xrotation Yrotation Zrotation
						JOINT mixamorig:RightForeArm
						{
							OFFSET -27.841511 0.000031 -0.000004
							CHANNELS 6 Xposition Yposition Zposition Xrotation Yrotation Zrotation
							JOINT mixamorig:RightHand
							{
								OFFSET -28.328831 -0.000015 0.000015
								CHANNELS 6 Xposition Yposition Zposition Xrotation Yrotation Zrotation
								JOINT mixamorig:RightHandThumb1
								{
									OFFSET -2.464806 -1.573990 2.681852
									CHANNELS 6 Xposition Yposition Zposition Xrotation Yrotation Zrotation
									JOINT mixamorig:RightHandThumb2
									{
										OFFSET -3.215179 -1.872803 1.924282
										CHANNELS 6 Xposition Yposition Zposition Xrotation Yrotation Zrotation
										JOINT mixamorig:RightHandThumb3
										{
											OFFSET -2.654831 -1.527969 1.512609
											CHANNELS 6 Xposition Yposition Zposition Xrotation Yrotation Zrotation
											JOINT mixamorig:RightHandThumb4
											{
												OFFSET -2.018814 -1.152008 1.108052
												CHANNELS 6 Xposition Yposition Zposition Xrotation Yrotation Zrotation
												End Site
												{
													OFFSET -188.809540 -114.533607 132.431396
												}
											}
										}
									}
								}
								JOINT mixamorig:RightHandIndex1
								{
									OFFSET -9.108284 -0.517868 2.259835
									CHANNELS 6 Xposition Yposition Zposition Xrotation Yrotation Zrotation
									JOINT mixamorig:RightHandIndex2
									{
										OFFSET -3.699989 0.000000 0.001215
										CHANNELS 6 Xposition Yposition Zposition Xrotation Yrotation Zrotation
										JOINT mixamorig:RightHandIndex3
										{
											OFFSET -2.850006 0.000031 -0.000522
											CHANNELS 6 Xposition Yposition Zposition Xrotation Yrotation Zrotation
											JOINT mixamorig:RightHandIndex4
											{
												OFFSET -2.772186 -0.000015 -0.000020
												CHANNELS 6 Xposition Yposition Zposition Xrotation Yrotation Zrotation
												End Site
												{
													OFFSET -277.218445 0.000000 -0.050231
												}
											}
										}
									}
								}
								JOINT mixamorig:RightHandMiddle1
								{
									OFFSET -9.532516 -0.000031 -0.000023
									CHANNELS 6 Xposition Yposition Zposition Xrotation Yrotation Zrotation
									JOINT mixamorig:RightHandMiddle2
									{
										OFFSET -3.700005 -0.000015 0.003713
										CHANNELS 6 Xposition Yposition Zposition Xrotation Yrotation Zrotation
										JOINT mixamorig:RightHandMiddle3
										{
											OFFSET -2.949974 0.000015 -0.002054
											CHANNELS 6 Xposition Yposition Zposition Xrotation Yrotation Zrotation
											JOINT mixamorig:RightHandMiddle4
											{
												OFFSET -2.946640 0.000000 -0.000156
												CHANNELS 6 Xposition Yposition Zposition Xrotation Yrotation Zrotation
												End Site
												{
													OFFSET -294.664337 0.000000 -0.113670
												}
											}
										}
									}
								}
								JOINT mixamorig:RightHandRing1
								{
									OFFSET -9.103600 -0.043076 -1.865134
									CHANNELS 6 Xposition Yposition Zposition Xrotation Yrotation Zrotation
									JOINT mixamorig:RightHandRing2
									{
										OFFSET -3.379288 0.000000 -0.001055
										CHANNELS 6 Xposition Yposition Zposition Xrotation Yrotation Zrotation
										JOINT mixamorig:RightHandRing3
										{
											OFFSET -2.889687 -0.000015 0.000379
											CHANNELS 6 Xposition Yposition Zposition Xrotation Yrotation Zrotation
											JOINT mixamorig:RightHandRing4
											{
												OFFSET -2.638809 -0.000015 0.000941
												CHANNELS 6 Xposition Yposition Zposition Xrotation Yrotation Zrotation
												End Site
												{
													OFFSET -263.880371 0.000000 0.516020
												}
											}
										}
									}
								}
								JOINT mixamorig:RightHandPinky1
								{
									OFFSET -8.076683 -0.486710 -3.806280
									CHANNELS 6 Xposition Yposition Zposition Xrotation Yrotation Zrotation
									JOINT mixamorig:RightHandPinky2
									{
										OFFSET -3.600014 -0.000015 -0.003747
										CHANNELS 6 Xposition Yposition Zposition Xrotation Yrotation Zrotation
										JOINT mixamorig:RightHandPinky3
										{
											OFFSET -2.099983 0.000000 -0.005739
											CHANNELS 6 Xposition Yposition Zposition Xrotation Yrotation Zrotation
											JOINT mixamorig:RightHandPinky4
											{
												OFFSET -2.115768 -0.000031 -0.003680
												CHANNELS 6 Xposition Yposition Zposition Xrotation Yrotation Zrotation
												End Site
												{
													OFFSET -211.577087 0.000000 -0.350686
												}
											}
										}
									}
								}
							}
						}
					}
				}
				JOINT mixamorig:LeftShoulder
				{
					OFFSET 4.570447 11.014725 -2.160855
					CHANNELS 6 Xposition Yposition Zposition Xrotation Yrotation Zrotation
					JOINT mixamorig:LeftArm
					{
						OFFSET 10.592371 -0.524597 -2.232119
						CHANNELS 6 Xposition Yposition Zposition Xrotation Yrotation Zrotation
						JOINT mixamorig:LeftForeArm
						{
							OFFSET 27.841532 -0.000031 0.000026
							CHANNELS 6 Xposition Yposition Zposition Xrotation Yrotation Zrotation
							JOINT mixamorig:LeftHand
							{
								OFFSET 28.328846 -0.000061 0.000022
								CHANNELS 6 Xposition Yposition Zposition Xrotation Yrotation Zrotation
								JOINT mixamorig:LeftHandThumb1
								{
									OFFSET 2.466141 -1.576172 2.681732
									CHANNELS 6 Xposition Yposition Zposition Xrotation Yrotation Zrotation
									JOINT mixamorig:LeftHandThumb2
									{
										OFFSET 3.217812 -1.872070 1.916482
										CHANNELS 6 Xposition Yposition Zposition Xrotation Yrotation Zrotation
										JOINT mixamorig:LeftHandThumb3
										{
											OFFSET 2.656029 -1.528778 1.514513
											CHANNELS 6 Xposition Yposition Zposition Xrotation Yrotation Zrotation
											JOINT mixamorig:LeftHandThumb4
											{
												OFFSET 2.020889 -1.154053 1.115139
												CHANNELS 6 Xposition Yposition Zposition Xrotation Yrotation Zrotation
												End Site
												{
													OFFSET 190.885437 -115.081749 130.048782
												}
											}
										}
									}
								}
								JOINT mixamorig:LeftHandIndex1
								{
									OFFSET 9.109314 -0.518021 2.259871
									CHANNELS 6 Xposition Yposition Zposition Xrotation Yrotation Zrotation
									JOINT mixamorig:LeftHandIndex2
									{
										OFFSET 3.699989 0.000000 -0.000322
										CHANNELS 6 Xposition Yposition Zposition Xrotation Yrotation Zrotation
										JOINT mixamorig:LeftHandIndex3
										{
											OFFSET 2.850006 0.000000 0.000352
											CHANNELS 6 Xposition Yposition Zposition Xrotation Yrotation Zrotation
											JOINT mixamorig:LeftHandIndex4
											{
												OFFSET 2.774864 -0.000031 -0.000027
												CHANNELS 6 Xposition Yposition Zposition Xrotation Yrotation Zrotation
												End Site
												{
													OFFSET 277.486267 0.000000 -0.009857
												}
											}
										}
									}
								}
								JOINT mixamorig:LeftHandMiddle1
								{
									OFFSET 9.533394 0.000061 0.000044
									CHANNELS 6 Xposition Yposition Zposition Xrotation Yrotation Zrotation
									JOINT mixamorig:LeftHandMiddle2
									{
										OFFSET 3.699989 -0.000015 -0.000231
										CHANNELS 6 Xposition Yposition Zposition Xrotation Yrotation Zrotation
										JOINT mixamorig:LeftHandMiddle3
										{
											OFFSET 2.949997 -0.000015 -0.000059
											CHANNELS 6 Xposition Yposition Zposition Xrotation Yrotation Zrotation
											JOINT mixamorig:LeftHandMiddle4
											{
												OFFSET 2.952896 0.000031 0.000063
												CHANNELS 6 Xposition Yposition Zposition Xrotation Yrotation Zrotation
												End Site
												{
													OFFSET 295.289337 0.000000 0.022810
												}
											}
										}
									}
								}
								JOINT mixamorig:LeftHandRing1
								{
									OFFSET 9.104523 -0.042999 -1.865074
									CHANNELS 6 Xposition Yposition Zposition Xrotation Yrotation Zrotation
									JOINT mixamorig:LeftHandRing2
									{
										OFFSET 3.150009 -0.000031 0.000043
										CHANNELS 6 Xposition Yposition Zposition Xrotation Yrotation Zrotation
										JOINT mixamorig:LeftHandRing3
										{
											OFFSET 2.949982 -0.000015 0.000040
											CHANNELS 6 Xposition Yposition Zposition Xrotation Yrotation Zrotation
											JOINT mixamorig:LeftHandRing4
											{
												OFFSET 2.644348 0.000000 0.000057
												CHANNELS 6 Xposition Yposition Zposition Xrotation Yrotation Zrotation
												End Site
												{
													OFFSET 264.434631 0.000000 0.012105
												}
											}
										}
									}
								}
								JOINT mixamorig:LeftHandPinky1
								{
									OFFSET 8.077789 -0.486847 -3.806259
									CHANNELS 6 Xposition Yposition Zposition Xrotation Yrotation Zrotation
									JOINT mixamorig:LeftHandPinky2
									{
										OFFSET 3.599953 0.000031 0.014727
										CHANNELS 6 Xposition Yposition Zposition Xrotation Yrotation Zrotation
										JOINT mixamorig:LeftHandPinky3
										{
											OFFSET 2.100021 0.000015 0.007705
											CHANNELS 6 Xposition Yposition Zposition Xrotation Yrotation Zrotation
											JOINT mixamorig:LeftHandPinky4
											{
												OFFSET 2.125504 0.000031 0.007517
												CHANNELS 6 Xposition Yposition Zposition Xrotation Yrotation Zrotation
												End Site
												{
													OFFSET 212.550781 0.000000 0.625752
												}
											}
										}
									}
								}
							}
						}
					}
				}
			}
		}
	}
	JOINT mixamorig:RightUpLeg
	{
		OFFSET -8.207787 -6.751648 -1.599560
		CHANNELS 6 Xposition Yposition Zposition Xrotation Yrotation Zrotation
		JOINT mixamorig:RightLeg
		{
			OFFSET -0.000002 -44.370117 0.345942
			CHANNELS 6 Xposition Yposition Zposition Xrotation Yrotation Zrotation
			JOINT mixamorig:RightFoot
			{
				OFFSET 0.000003 -44.423679 -3.043532
				CHANNELS 6 Xposition Yposition Zposition Xrotation Yrotation Zrotation
				JOINT mixamorig:RightToeBase
				{
					OFFSET -0.000002 -8.728671 10.710558
					CHANNELS 6 Xposition Yposition Zposition Xrotation Yrotation Zrotation
					JOINT mixamorig:RightToe_End
					{
						OFFSET -0.000001 -0.000679 9.278119
						CHANNELS 6 Xposition Yposition Zposition Xrotation Yrotation Zrotation
						End Site
						{
							OFFSET 0.000000 -0.067690 927.812134
						}
					}
				}
			}
		}
	}
	JOINT mixamorig:LeftUpLeg
	{
		OFFSET 8.207793 -6.751686 -1.599556
		CHANNELS 6 Xposition Yposition Zposition Xrotation Yrotation Zrotation
		JOINT mixamorig:LeftLeg
		{
			OFFSET -0.000004 -44.370014 0.346954
			CHANNELS 6 Xposition Yposition Zposition Xrotation Yrotation Zrotation
			JOINT mixamorig:LeftFoot
			{
				OFFSET -0.000001 -44.423672 -3.044401
				CHANNELS 6 Xposition Yposition Zposition Xrotation Yrotation Zrotation
				JOINT mixamorig:LeftToeBase
				{
					OFFSET -0.000002 -8.728669 10.710558
					CHANNELS 6 Xposition Yposition Zposition Xrotation Yrotation Zrotation
					JOINT mixamorig:LeftToe_End
					{
						OFFSET -0.000003 -0.000679 9.278133
						CHANNELS 6 Xposition Yposition Zposition Xrotation Yrotation Zrotation
						End Site
						{
							OFFSET 0.000000 -0.068021 927.813477
						}
					}
				}
			}
		}
	}
}
MOTION
Frames: 3
Frame Time: 0.033333
0.000006 104.270477 1.554256 0.000010 0.000003 -0.000113 -0.000005 10.181587 0.131522 0.000001 -0.000003 0.000084 -0.000000 9.893967 -1.470711 0.000001 0.000000 -0.000000 -0.000000 9.220802 -1.370642 0.000000 -0.000000 -0.000000 0.000001 16.740433 -2.049030 0.000000 -0.000000 -0.000000 0.000000 9.617859 1.685014 0.000000 0.000000 0.000000 0.000002 22.037384 7.501101 0.000000 -0.000000 0.000000 -4.569968 11.014880 -2.160881 0.000008 0.000001 -0.000038 -10.592880 -0.524738 -2.231947 69.570231 22.245207 -15.553128 -27.841537 0.000011 0.000551 -57.090840 109.258814 74.925140 -28.328835 -0.000007 0.000020 -0.000319 -0.000047 0.000006 -2.464440 -1.573853 2.682367 -39.414727 -161.631400 10.811698 -3.215276 -1.872607 1.924676 158.611145 32.037590 3.388365 -2.654963 -1.527877 1.513091 148.661512 26.199142 -40.679193 -2.018823 -1.152010 1.108062 -0.000007 -0.000005 0.000000 -9.108389 -0.517562 2.260127 100.072448 17.190152 -20.504032 -3.700070 0.000324 0.001525 99.258693 12.496748 -14.649282 -2.850080 0.000374 -0.000247 99.408008 9.603858 -11.314679 -2.772168 0.000002 -0.000019 0.000002 -0.000000 -0.000001 -9.532600 0.000241 0.000222 90.646077 17.646593 -17.989595 -3.700059 0.000342 0.003955 91.521933 10.410648 -10.594039 -2.950077 0.000340 -0.001807 93.252313 10.254577 -10.842959 -2.946612 -0.000013 -0.000155 0.000002 0.000000 0.000001 -9.103710 -0.042778 -1.864882 86.607837 18.656984 -17.558354 -3.379306 0.000304 -0.000854 89.737450 9.079308 -9.055116 -2.889756 0.000347 0.000621 95.369679 6.088478 -6.735711 -2.638829 -0.000002 0.000939 0.000001 0.000001 -0.000001 -8.076757 -0.486408 -3.806067 76.287510 17.887181 -13.970100 -3.600035 0.000268 -0.003553 80.415437 10.057123 -8.199810 -2.100006 0.000316 -0.005516 84.785980 6.869402 -6.068403 -2.115768 -0.000041 -0.003682 -0.000000 0.000001 -0.000003 4.570446 11.014691 -2.160851 -0.000018 0.000010 -0.000021 10.592524 -0.524508 -2.232395 73.604960 -58.048794 45.089753 27.841721 -0.000073 -0.000088 234.726445 -68.294447 254.690460 28.328840 -0.000059 0.000019 0.000020 -0.000087 -0.000000 2.466135 -1.576198 2.681851 130.543657 148.670911 -166.495656 3.217794 -1.872023 1.916535 267.777676 49.150530 42.770385 2.655933 -1.528811 1.514605 -161.502241 51.403850 105.912287 2.020888 -1.154077 1.115149 0.000001 0.000006 0.000001 9.109293 -0.517771 2.260059 -125.885113 -5.356631 -10.448299 3.699960 0.000246 -0.000097 -124.299812 -5.779441 -10.937797 2.849971 0.000307 0.000582 -125.177000 -6.844454 -13.153663 2.774873 -0.000031 -0.000010 0.000003 0.000001 -0.000001 9.533179 0.000370 0.000149 -167.712672 -7.721617 -64.154901 3.700011 0.000163 -0.000399 -285.447894 2.042068 -1.555998 2.950021 0.000017 -0.000165 35.786991 2.337479 -0.754046 2.952861 -0.000031 0.000061 -0.000002 0.000002 -0.000001 9.104443 -0.042642 -1.864967 -164.216039 -3.691211 -26.181256 3.149940 0.000181 -0.000155 66.331252 22.064086 -14.521542 2.949951 0.000055 -0.000101 36.293586 12.483265 -4.105657 2.644319 0.000031 0.000052 0.000001 0.000000 -0.000001 8.077848 -0.486537 -3.806136 -160.636924 4.375399 22.074186 3.599874 0.000147 0.014522 59.007616 33.048751 -19.007696 2.099940 0.000087 0.007542 42.754932 24.366352 -9.611353 2.125509 -0.000016 0.007513 -0.000002 0.000002 -0.000002 -8.207786 -6.751667 -1.599560 -0.077001 -0.000003 0.000080 -0.000002 -44.370110 0.345938 0.153719 -0.000000 -0.000000 0.000000 -44.423679 -3.043532 -0.076700 0.000000 -0.000002 -0.000006 -8.728667 10.710559 -0.000009 -0.000000 -0.000000 -0.000001 -0.000679 9.278123 0.000000 -0.000000 -0.000000 8.207792 -6.751710 -1.599556 -0.074518 -0.000003 0.000081 -0.000002 -44.370014 0.346960 0.148822 0.000002 0.000000 -0.000001 -44.423664 -3.044403 -0.074314 0.000000 -0.000002 -0.000004 -8.728671 10.710558 0.000007 -0.000000 -0.000000 0.000000 -0.000680 9.278137 -0.000000 0.000000 -0.000001 
0.000006 104.270477 1.554256 0.000010 0.000003 -0.000113 -0.000005 10.181587 0.131522 0.000001 -0.000003 0.000084 -0.000000 9.893967 -1.470711 0.000001 0.000000 -0.000000 -0.000000 9.220802 -1.370642 0.000000 -0.000000 -0.000000 0.000001 16.740433 -2.049030 0.000000 -0.000000 -0.000000 0.000000 9.617859 1.685014 0.000000 0.000000 0.000000 0.000002 22.037384 7.501101 0.000000 -0.000000 0.000000 -4.569968 11.014880 -2.160881 0.000008 0.000001 -0.000038 -10.592880 -0.524734 -2.231954 69.431250 20.985232 -14.624176 -27.841530 0.000016 0.000535 -57.530315 109.322621 75.495385 -28.328814 0.000021 0.000020 -0.000320 -0.000043 0.000007 -2.464446 -1.573842 2.682375 -39.616883 -161.612576 10.316079 -3.215289 -1.872593 1.924661 158.625775 31.969008 3.024658 -2.654952 -1.527917 1.513089 148.585943 26.209833 -40.739923 -2.018839 -1.152010 1.108055 -0.000004 -0.000004 0.000007 -9.108394 -0.517565 2.260124 99.758171 17.137710 -20.330861 -3.700071 0.000327 0.001521 98.883879 12.560101 -14.627292 -2.850064 0.000368 -0.000257 99.167407 9.720436 -11.403471 -2.772153 0.000001 -0.000019 0.000001 0.000000 -0.000001 -9.532598 0.000261 0.000225 90.554518 17.515776 -17.829121 -3.700072 0.000337 0.003950 91.399904 10.285206 -10.443270 -2.950042 0.000323 -0.001809 93.111297 10.202994 -10.762027 -2.946643 0.000003 -0.000153 0.000003 0.000000 0.000001 -9.103716 -0.042766 -1.864892 86.594361 18.483889 -17.390768 -3.379319 0.000337 -0.000818 89.767052 8.986850 -8.967668 -2.889737 0.000357 0.000648 95.286152 6.113155 -6.752946 -2.638817 -0.000003 0.000945 0.000000 0.000002 0.000000 -8.076757 -0.486394 -3.806077 76.205513 17.868402 -13.934875 -3.600040 0.000264 -0.003549 80.560620 10.113019 -8.268109 -2.100009 0.000304 -0.005507 84.880482 6.905312 -6.111196 -2.115767 -0.000039 -0.003678 0.000001 0.000002 -0.000004 4.570446 11.014691 -2.160851 -0.000018 0.000010 -0.000021 10.592528 -0.524519 -2.232397 74.124833 -58.420240 45.786620 27.841709 -0.000076 -0.000085 234.797779 -67.903541 255.181605 28.328838 -0.000045 0.000005 0.000017 -0.000087 0.000000 2.466143 -1.576197 2.681854 130.976404 151.913680 -166.714440 3.217813 -1.872015 1.916523 269.663983 45.514482 40.219029 2.655991 -1.528843 1.514617 -157.761415 49.647757 100.578586 2.020883 -1.154073 1.115146 0.000001 0.000002 0.000003 9.109282 -0.517751 2.260097 -122.491820 -6.430229 -11.674791 3.699965 0.000245 -0.000086 -122.940919 -6.158990 -11.325955 2.849967 0.000309 0.000575 -125.175005 -6.759241 -12.990351 2.774881 -0.000016 -0.000031 -0.000000 0.000001 -0.000001 9.533209 0.000394 0.000179 -162.026007 -9.033665 -53.067086 3.699991 0.000181 -0.000398 -284.486777 2.002819 -1.552851 2.950010 0.000031 -0.000186 40.313303 2.744079 -1.006598 2.952852 -0.000012 0.000062 -0.000001 -0.000001 -0.000001 9.104421 -0.042640 -1.864935 -157.088040 -6.383318 -30.775220 3.149930 0.000203 -0.000184 70.131856 22.298237 -15.751709 2.949950 0.000063 -0.000117 41.476197 14.115615 -5.367508 2.644325 0.000046 0.000054 0.000000 0.000000 -0.000000 8.077783 -0.486505 -3.806109 -152.852817 0.331441 -0.567606 3.599846 0.000133 0.014524 62.422356 34.873416 -21.500677 2.099941 0.000091 0.007530 44.677364 25.398419 -10.529817 2.125506 -0.000010 0.007524 -0.000002 0.000001 0.000002 -8.207786 -6.751667 -1.599560 -0.077001 -0.000003 0.000080 -0.000002 -44.370110 0.345938 0.153719 -0.000000 -0.000000 0.000000 -44.423679 -3.043532 -0.076700 0.000000 -0.000002 -0.000006 -8.728667 10.710559 -0.000009 -0.000000 -0.000000 -0.000001 -0.000679 9.278123 0.000000 -0.000000 -0.000000 8.207792 -6.751710 -1.599556 -0.074518 -0.000003 0.000081 -0.000002 -44.370014 0.346960 0.148822 0.000002 0.000000 -0.000001 -44.423664 -3.044403 -0.074314 0.000000 -0.000002 -0.000004 -8.728671 10.710558 0.000007 -0.000000 -0.000000 0.000000 -0.000680 9.278137 -0.000000 0.000000 -0.000001 
0.000006 104.270477 1.554256 0.000010 0.000003 -0.000113 -0.000005 10.181587 0.131522 0.000001 -0.000003 0.000084 -0.000000 9.893967 -1.470711 0.000001 0.000000 -0.000000 -0.000000 9.220802 -1.370642 0.000000 -0.000000 -0.000000 0.000001 16.740433 -2.049030 0.000000 -0.000000 -0.000000 0.000000 9.617859 1.685014 0.000000 0.000000 0.000000 0.000002 22.037384 7.501101 0.000000 -0.000000 0.000000 -4.569968 11.014880 -2.160881 0.000008 0.000001 -0.000038 -10.592881 -0.524731 -2.231948 69.245762 21.509825 -14.942967 -27.841536 0.000015 0.000545 -57.269459 109.848519 75.736136 -28.328823 0.000008 0.000025 -0.000319 -0.000043 0.000007 -2.464442 -1.573855 2.682364 -39.475345 -161.241287 10.491642 -3.215283 -1.872593 1.924652 158.048897 31.973202 3.421313 -2.654949 -1.527906 1.513095 148.107598 26.324712 -40.699291 -2.018836 -1.152019 1.108060 -0.000009 -0.000007 0.000006 -9.108396 -0.517558 2.260119 99.566543 16.755755 -19.815414 -3.700070 0.000329 0.001519 98.909971 12.148250 -14.154683 -2.850077 0.000372 -0.000242 99.168828 9.492778 -11.137122 -2.772156 -0.000001 -0.000018 -0.000002 -0.000000 0.000000 -9.532618 0.000253 0.000213 90.465193 17.278084 -17.561943 -3.700053 0.000340 0.003963 91.343350 10.374875 -10.524685 -2.950058 0.000348 -0.001824 93.320315 10.312902 -10.917530 -2.946633 0.000003 -0.000155 -0.000001 0.000001 0.000000 -9.103720 -0.042758 -1.864901 86.719750 18.260589 -17.216988 -3.379324 0.000325 -0.000822 89.868439 8.879467 -8.876321 -2.889742 0.000361 0.000625 95.766711 6.037827 -6.726644 -2.638805 0.000001 0.000942 0.000003 -0.000002 0.000001 -8.076759 -0.486394 -3.806081 76.783409 17.527022 -13.806326 -3.600027 0.000272 -0.003550 81.232539 9.600854 -7.928615 -2.100028 0.000306 -0.005512 85.320312 6.556469 -5.837766 -2.115772 -0.000052 -0.003678 0.000001 0.000000 -0.000002 4.570446 11.014691 -2.160851 -0.000018 0.000010 -0.000021 10.592527 -0.524514 -2.232397 74.044913 -58.319352 45.642292 27.841724 -0.000090 -0.000075 234.991675 -68.347791 254.948067 28.328833 -0.000044 0.000016 0.000020 -0.000086 -0.000000 2.466140 -1.576202 2.681855 128.715707 150.792791 -165.620421 3.217813 -1.872027 1.916523 267.173750 44.994913 41.708922 2.655988 -1.528820 1.514612 -160.872907 46.980906 102.106267 2.020883 -1.154038 1.115152 0.000006 0.000002 0.000003 9.109269 -0.517774 2.260108 -118.216340 -7.797697 -12.983475 3.699958 0.000276 -0.000095 -118.223253 -6.391002 -10.684038 2.849962 0.000280 0.000561 -118.824487 -6.448046 -10.885438 2.774881 -0.000030 -0.000030 0.000001 -0.000001 -0.000001 9.533168 0.000346 0.000188 -160.890611 -12.501937 -66.097694 3.699991 0.000162 -0.000404 -284.814271 3.807375 -2.933359 2.949986 0.000024 -0.000173 36.783868 5.054551 -1.680908 2.952852 -0.000025 0.000069 0.000003 -0.000003 -0.000004 9.104381 -0.042692 -1.864923 -156.421126 -10.395157 -47.100981 3.149945 0.000175 -0.000166 68.801308 24.507520 -16.917194 2.949941 0.000073 -0.000130 38.640593 17.286241 -6.100806 2.644317 0.000031 0.000052 -0.000000 -0.000000 0.000000 8.077744 -0.486501 -3.806101 -153.290878 -2.334492 -11.566995 3.599854 0.000135 0.014533 59.188534 34.311353 -19.844831 2.099936 0.000053 0.007519 43.113858 26.128557 -10.433199 2.125502 -0.000001 0.007505 -0.000000 0.000000 0.000000 -8.207786 -6.751667 -1.599560 -0.077001 -0.000003 0.000080 -0.000002 -44.370110 0.345938 0.153719 -0.000000 -0.000000 0.000000 -44.423679 -3.043532 -0.076700 0.000000 -0.000002 -0.000006 -8.728667 10.710559 -0.000009 -0.000000 -0.000000 -0.000001 -0.000679 9.278123 0.000000 -0.000000 -0.000000 8.207792 -6.751710 -1.599556 -0.074518 -0.000003 0.000081 -0.000002 -44.370014 0.346960 0.148822 0.000002 0.000000 -0.000001 -44.423664 -3.044403 -0.074314 0.000000 -0.000002 -0.000004 -8.728671 10.710558 0.000007 -0.000000 -0.000000 0.000000 -0.000680 9.278137 -0.000000 0.000000 -0.000001 
